<?xml version="1.0" encoding="UTF-8"?><svg xmlns="http://www.w3.org/2000/svg" viewBox="0 0 2467.3 666.93"><g id="b"><path d="M269.49,656.93c-78.18,0-144.23-30.03-191.02-86.85-44.16-53.62-68.47-128.96-68.47-212.12v-48.97c0-83.17,24.32-158.5,68.47-212.12C125.26,40.03,191.31,10,269.49,10h1888.83c79.86,0,154.94,31.1,211.41,87.57,56.47,56.47,87.57,131.55,87.57,211.41v48.97c0,79.86-31.1,154.94-87.57,211.41-56.47,56.47-131.55,87.57-211.41,87.57H269.49Z" style="fill:#fe0; stroke-width:0px;"/><path d="M2158.32,20c39.02,0,76.86,7.64,112.48,22.7,34.41,14.55,65.32,35.39,91.86,61.94,26.55,26.55,47.38,57.45,61.94,91.86,15.06,35.61,22.7,73.46,22.7,112.48v48.97c0,39.02-7.64,76.86-22.7,112.48-14.55,34.41-35.39,65.32-61.94,91.86-26.55,26.55-57.45,47.38-91.86,61.94-35.61,15.06-73.46,22.7-112.48,22.7H269.49c-75.09,0-138.47-28.77-183.3-83.21-21.24-25.8-37.75-56.63-49.05-91.64-11.38-35.24-17.14-73.64-17.14-114.12v-48.97c0-40.49,5.77-78.88,17.14-114.12,11.3-35.01,27.8-65.84,49.05-91.64,44.83-54.44,108.21-83.21,183.3-83.21h1888.83M2158.32,0H269.49C98.85,0,0,138.33,0,308.98v48.97c0,170.64,98.85,308.98,269.49,308.98h1888.83c170.64,0,308.98-138.33,308.98-308.98v-48.97c0-170.64-138.33-308.98-308.98-308.98h0Z" style="fill:#231f20; stroke-width:0px;"/><path d="M2163.82,616.88H298.28c-144.83,0-237.47-117.41-237.47-262.23v-42.37c0-144.83,92.64-262.23,237.47-262.23h1865.54c144.83,0,239.8,117.41,239.8,262.23v42.37c0,144.83-94.97,262.23-239.8,262.23Z" style="fill:#e30614; stroke-width:0px;"/></g><g id="c"><path d="M212.69,526.35c-10.94,0-24.07,8.32-24.07-155.78,0-216.17,22.75-208.3,30.2-208.3h40.26c17.07,0,23.2,0,44.63,29.32,41.14,56.44,43.75,88.38,52.52,88.38,6.56,0,9.17-31.94,55.57-88.38,24.51-29.77,31.07-29.32,48.14-29.32h34.13c7.43,0,30.2-7.87,30.2,208.3,0,164.1-13.13,155.78-24.07,155.78h-56.01c-5.26,0-15.77,1.32-15.77-6.56,0-6.13,24.94-84.91,24.94-199.11,0-9.19,1.32-63.01-13.11-63.01-12.7,0-29.32,43.31-33.71,53.82-36.75,89.7-21.88,130.84-51.2,130.84-36.75,0-22.31-41.14-61.25-130.84-4.38-9.64-18.83-53.82-32.39-53.82-14.45,0-14,53.82-14,63.01,0,114.2,27.56,192.98,27.56,199.11,0,7.87-10.49,6.56-15.75,6.56h-46.82Z" style="fill:#231f20; stroke-width:0px;"/><path d="M749.96,526.35c-3.94,0-16.62,1.32-16.62-5.26,0-12.26,33.69-56.01,33.69-105.9,0-19.69-18.81-27.13-38.52-27.13-39.82,0-103.26,7-103.26,56.88,0,34.58,28.43,71.78,28.43,78.33,0,2.62-2.62,3.06-8.3,3.06h-62.59c-22.32,0-28.43-39.39-28.43-96.27,0-187.29,129.96-274.36,149.2-274.36,14.45,0,127.35,62.57,127.35,265.61,0,116.83-18.81,105.02-31.94,105.02h-49.01ZM634.88,332.06c0,5.26,3.06,8.32,8.32,8.32,7.87,0,50.31-11.38,88.83-11.38,15.32,0,22.32-2.19,22.32-14.43,0-27.13-32.39-84.02-49.01-84.02-23.64,0-70.46,69.57-70.46,101.51Z" style="fill:#231f20; stroke-width:0px;"/><path d="M853.81,365.32c0-103.28,57.33-209.6,161.91-209.6,38.07,0,96.7,16.18,96.7,63.44,0,25.39-17.49,39.82-45.06,39.82-17.94,0,6.11-41.14-49.46-41.14-69.14,0-93.21,78.33-93.21,139.16,0,47.71,13.58,98.02,70.89,98.02,27.13,0,56.46-11.37,56.46-42.01,0-35.44-34.58-38.5-34.58-49.88,0-5.68,75.27-32.82,80.53-32.82,8.75,0,18.81,106.77,18.81,119.9,0,57.33-56.88,82.7-111.15,82.7-101.51,0-151.84-70.01-151.84-167.59Z" style="fill:#231f20; stroke-width:0px;"/><path d="M1337.02,526.35c-3.94,0-16.62,1.32-16.62-5.26,0-12.26,33.69-56.01,33.69-105.9,0-19.69-18.81-27.13-38.52-27.13-39.82,0-103.26,7-103.26,56.88,0,34.58,28.43,71.78,28.43,78.33,0,2.62-2.62,3.06-8.3,3.06h-62.59c-22.32,0-28.43-39.39-28.43-96.27,0-187.29,129.96-274.36,149.2-274.36,14.45,0,127.35,62.57,127.35,265.61,0,116.83-18.81,105.02-31.94,105.02h-49.01ZM1221.93,332.06c0,5.26,3.06,8.32,8.32,8.32,7.87,0,50.31-11.38,88.83-11.38,15.32,0,22.32-2.19,22.32-14.43,0-27.13-32.39-84.02-49.01-84.02-23.64,0-70.46,69.57-70.46,101.51Z" style="fill:#231f20; stroke-width:0px;"/><path d="M1466.64,526.35c-23.2.87-16.19-14.45-18.39-103.28,0-58.63,24.07-260.8,36.75-260.8h69.59c3.06,0,8.32.87,8.32,8.75,0,9.64-50.77,103.72-50.77,224.49,0,60.38,26.26,74.83,50.33,74.83,40.26,0,64.76-37.2,75.7-37.2,8.32,0,25.39,84.46,25.39,86.65,0,8.75-13.58,6.56-18.81,6.56h-178.1Z" style="fill:#231f20; stroke-width:0px;"/><path d="M1713.51,526.35c-10.94,0-24.07,8.32-24.07-155.78,0-216.17,22.75-208.3,30.2-208.3h47.25c5.7,0,16.64-1.32,16.64,7,0,4.38-23.2,77.46-23.2,161.91,0,112.02,21.88,184.23,21.88,190.36,0,4.36-2.62,4.81-6.56,4.81h-62.14Z" style="fill:#231f20; stroke-width:0px;"/><path d="M1845.73,526.35c-23.2.87-16.19-14.45-18.39-103.28,0-58.63,24.07-260.8,36.75-260.8h172.42c5.26,0,21-1.32,21,7.45,0,3.49-28.01,64.76-33.69,64.76-7.45,0-20.58-20.58-63.46-20.58-30.2,0-62.14,17.94-62.14,59.95,0,9.19,1.75,24.94,14,24.94,14,0,45.07-20.56,81.83-20.56,5.26,0,19.7,1.75,19.7,9.19,0,.43-24.51,71.76-29.77,71.76-4.36,0-20.99-8.75-38.05-8.75-22.32,0-54.71,16.19-54.71,59.5,0,35.01,18.39,60.39,55.14,60.39,43.33,0,70.01-28.88,80.53-28.88,6.56,0,35.88,73.95,35.88,78.33,0,8.3-10.94,6.56-16.19,6.56h-200.85Z" style="fill:#231f20; stroke-width:0px;"/><path d="M2201.55,214.78c-21.88,0-49.88,10.96-49.88,36.33,0,31.52,43.33,43.75,67.38,52.07,91.91,30.64,110.72,74.83,110.72,116.41,0,50.76-36.33,113.32-128.66,113.32-62.12,0-125.14-33.24-125.14-102.83,0-37.2,22.31-59.08,26.69-59.08,7.43,0,0,88.85,94.08,88.85,33.26,0,62.14-14.45,62.14-41.58,0-31.94-39.39-45.07-64.78-52.95-95.83-29.75-106.32-73.08-106.32-110.28s24.94-99.32,113.77-99.32c63.46,0,108.53,33.69,108.53,46.37s-22.77,52.07-35.03,52.07c-10.94,0-28.01-39.39-73.51-39.39Z" style="fill:#231f20; stroke-width:0px;"/><path d="M197.63,508.59c-10.94,0-24.07,8.32-24.07-155.78,0-216.17,22.75-208.3,30.2-208.3h40.26c17.07,0,23.2,0,44.63,29.32,41.14,56.44,43.75,88.38,52.52,88.38,6.56,0,9.17-31.94,55.57-88.38,24.51-29.77,31.07-29.32,48.14-29.32h34.13c7.43,0,30.2-7.87,30.2,208.3,0,164.1-13.13,155.78-24.07,155.78h-56.01c-5.26,0-15.77,1.32-15.77-6.56,0-6.13,24.94-84.91,24.94-199.11,0-9.19,1.32-63.01-13.11-63.01-12.7,0-29.32,43.31-33.71,53.82-36.75,89.7-21.88,130.84-51.2,130.84-36.75,0-22.31-41.14-61.25-130.84-4.38-9.64-18.83-53.82-32.39-53.82-14.45,0-14,53.82-14,63.01,0,114.2,27.56,192.98,27.56,199.11,0,7.87-10.49,6.56-15.75,6.56h-46.82Z" style="fill:#fff; stroke-width:0px;"/><path d="M734.9,508.59c-3.94,0-16.62,1.32-16.62-5.26,0-12.26,33.69-56.01,33.69-105.9,0-19.69-18.81-27.13-38.52-27.13-39.82,0-103.26,7-103.26,56.88,0,34.58,28.43,71.78,28.43,78.33,0,2.62-2.62,3.06-8.3,3.06h-62.59c-22.32,0-28.43-39.39-28.43-96.27,0-187.29,129.96-274.36,149.2-274.36,14.45,0,127.35,62.57,127.35,265.61,0,116.83-18.81,105.02-31.94,105.02h-49.01ZM619.81,314.3c0,5.26,3.06,8.32,8.32,8.32,7.87,0,50.31-11.38,88.83-11.38,15.32,0,22.32-2.19,22.32-14.43,0-27.13-32.39-84.02-49.01-84.02-23.64,0-70.46,69.57-70.46,101.51Z" style="fill:#fff; stroke-width:0px;"/><path d="M838.74,347.56c0-103.28,57.33-209.6,161.91-209.6,38.07,0,96.7,16.18,96.7,63.44,0,25.39-17.49,39.82-45.06,39.82-17.94,0,6.11-41.14-49.46-41.14-69.14,0-93.21,78.33-93.21,139.16,0,47.71,13.58,98.02,70.89,98.02,27.13,0,56.46-11.37,56.46-42.01,0-35.44-34.58-38.5-34.58-49.88,0-5.68,75.27-32.82,80.53-32.82,8.75,0,18.81,106.77,18.81,119.9,0,57.33-56.88,82.7-111.15,82.7-101.51,0-151.84-70.01-151.84-167.59Z" style="fill:#fff; stroke-width:0px;"/><path d="M1321.96,508.59c-3.94,0-16.62,1.32-16.62-5.26,0-12.26,33.69-56.01,33.69-105.9,0-19.69-18.81-27.13-38.52-27.13-39.82,0-103.26,7-103.26,56.88,0,34.58,28.43,71.78,28.43,78.33,0,2.62-2.62,3.06-8.3,3.06h-62.59c-22.32,0-28.43-39.39-28.43-96.27,0-187.29,129.96-274.36,149.2-274.36,14.45,0,127.35,62.57,127.35,265.61,0,116.83-18.81,105.02-31.94,105.02h-49.01ZM1206.87,314.3c0,5.26,3.06,8.32,8.32,8.32,7.87,0,50.31-11.38,88.83-11.38,15.32,0,22.32-2.19,22.32-14.43,0-27.13-32.39-84.02-49.01-84.02-23.64,0-70.46,69.57-70.46,101.51Z" style="fill:#fff; stroke-width:0px;"/><path d="M1451.58,508.59c-23.2.87-16.19-14.45-18.39-103.28,0-58.63,24.07-260.8,36.75-260.8h69.59c3.06,0,8.32.87,8.32,8.75,0,9.64-50.77,103.72-50.77,224.49,0,60.38,26.26,74.83,50.33,74.83,40.26,0,64.76-37.2,75.7-37.2,8.32,0,25.39,84.46,25.39,86.65,0,8.75-13.58,6.56-18.81,6.56h-178.1Z" style="fill:#fff; stroke-width:0px;"/><path d="M1698.44,508.59c-10.94,0-24.07,8.32-24.07-155.78,0-216.17,22.75-208.3,30.2-208.3h47.25c5.7,0,16.64-1.32,16.64,7,0,4.38-23.2,77.46-23.2,161.91,0,112.02,21.88,184.23,21.88,190.36,0,4.36-2.62,4.81-6.56,4.81h-62.14Z" style="fill:#fff; stroke-width:0px;"/><path d="M1830.67,508.59c-23.2.87-16.19-14.45-18.39-103.28,0-58.63,24.07-260.8,36.75-260.8h172.42c5.26,0,21-1.32,21,7.45,0,3.49-28.01,64.76-33.69,64.76-7.45,0-20.58-20.58-63.46-20.58-30.2,0-62.14,17.94-62.14,59.95,0,9.19,1.75,24.94,14,24.94,14,0,45.07-20.56,81.83-20.56,5.26,0,19.7,1.75,19.7,9.19,0,.43-24.51,71.76-29.77,71.76-4.36,0-20.99-8.75-38.05-8.75-22.32,0-54.71,16.19-54.71,59.5,0,35.01,18.39,60.39,55.14,60.39,43.33,0,70.01-28.88,80.53-28.88,6.56,0,35.88,73.95,35.88,78.33,0,8.3-10.94,6.56-16.19,6.56h-200.85Z" style="fill:#fff; stroke-width:0px;"/><path d="M2186.49,197.02c-21.88,0-49.88,10.96-49.88,36.33,0,31.52,43.33,43.75,67.38,52.07,91.91,30.64,110.72,74.83,110.72,116.41,0,50.76-36.33,113.32-128.66,113.32-62.12,0-125.14-33.24-125.14-102.83,0-37.2,22.31-59.08,26.69-59.08,7.43,0,0,88.85,94.08,88.85,33.26,0,62.14-14.45,62.14-41.58,0-31.94-39.39-45.07-64.78-52.95-95.83-29.75-106.32-73.08-106.32-110.28s24.94-99.32,113.77-99.32c63.46,0,108.53,33.69,108.53,46.37s-22.77,52.07-35.03,52.07c-10.94,0-28.01-39.39-73.51-39.39Z" style="fill:#fff; stroke-width:0px;"/></g></svg>